# xmcd CD database file
#
# Track frame offsets:
#	150
#	10885
#	42935
#	67960
#	97530
#	122077
#	146432
#	172690
#	203444
#	232112
#
# Disc length: 3318 seconds
#
# Revision: 0
# Processed by: cddbd v1.5.1PL0 Copyright (c) Steve Scherf et al.
# Submitted via: CDex 1.51
#
DISCID=710cf40a
DTITLE=Antonio Hart - All We Need
DYEAR=2003
DGENRE=Jazz
TTITLE0=Love Is All We need(Hart)
TTITLE1=Still My Friend(Hart)
TTITLE2=Auditory Illusion(Hart)
TTITLE3=Crystal(Hart)
TTITLE4=Bruh Slim(Hart)
TTITLE5=Dreams(Hart)
TTITLE6=A Harmonic Future(Hart)
TTITLE7=Alone On 911(Hart)
TTITLE8=Imagination(Hart)
TTITLE9=God Is All WE Need(Hart)
EXTD=YEAR: 2003
EXTT0=
EXTT1=
EXTT2=
EXTT3=
EXTT4=
EXTT5=
EXTT6=
EXTT7=
EXTT8=
EXTT9=
PLAYORDER=
